<svg xmlns="http://www.w3.org/2000/svg" viewBox="0 0 256 356">
  <defs>
    <linearGradient id="bg" x1="0" y1="0" x2="1" y2="1">
      <stop offset="0%" stop-color="#A9D06C"/>
      <stop offset="100%" stop-color="#35551E"/>
    </linearGradient>
  </defs>
  <rect width="256" height="356" rx="28" fill="#071017"/>
  <rect x="10" y="10" width="236" height="336" rx="22" fill="url(#bg)"/>
  <rect x="24" y="26" width="208" height="176" rx="20" fill="#15270C" opacity="0.84"/>
  <path d="M96 90l18-24 14 28M160 90l-18-24-14 28" stroke="#F7F8FB" stroke-width="10" stroke-linecap="round" fill="none"/>
  <circle cx="128" cy="120" r="40" fill="#F7F8FB"/>
  <circle cx="112" cy="114" r="8" fill="#15270C"/>
  <circle cx="144" cy="114" r="8" fill="#15270C"/>
  <path d="M114 140c8-8 20-8 28 0" stroke="#15270C" stroke-width="8" stroke-linecap="round" fill="none"/>
  <rect x="54" y="228" width="148" height="16" rx="8" fill="#EEF8D8" opacity="0.55"/>
  <rect x="70" y="254" width="116" height="12" rx="6" fill="#EEF8D8" opacity="0.35"/>
  <text x="26" y="46" fill="#F7F8FB" font-size="20" font-family="Arial, sans-serif" font-weight="700">BEAST</text>
  <text x="26" y="324" fill="#F7F8FB" font-size="22" font-family="Arial, sans-serif" font-weight="700">Leap Chain</text>
</svg>
