<svg xmlns="http://www.w3.org/2000/svg" viewBox="0 0 256 356">
  <defs>
    <linearGradient id="bg" x1="0" y1="0" x2="1" y2="1">
      <stop offset="0%" stop-color="#81E3A8"/>
      <stop offset="100%" stop-color="#135144"/>
    </linearGradient>
  </defs>
  <rect width="256" height="356" rx="28" fill="#071017"/>
  <rect x="10" y="10" width="236" height="336" rx="22" fill="url(#bg)"/>
  <rect x="24" y="26" width="208" height="176" rx="20" fill="#0A2D28" opacity="0.84"/>
  <path d="M128 70c24 0 44 20 44 44 0 18-8 32-20 42h-48c-12-10-20-24-20-42 0-24 20-44 44-44z" fill="#F7F8FB"/>
  <circle cx="108" cy="110" r="8" fill="#0A2D28"/>
  <circle cx="148" cy="110" r="8" fill="#0A2D28"/>
  <path d="M96 154c10-16 18-22 32-22s22 6 32 22" stroke="#F7F8FB" stroke-width="12" fill="none" stroke-linecap="round"/>
  <rect x="54" y="228" width="148" height="16" rx="8" fill="#D8FAE1" opacity="0.55"/>
  <rect x="70" y="254" width="116" height="12" rx="6" fill="#D8FAE1" opacity="0.35"/>
  <text x="26" y="46" fill="#F7F8FB" font-size="20" font-family="Arial, sans-serif" font-weight="700">MURLOC</text>
  <text x="26" y="324" fill="#F7F8FB" font-size="22" font-family="Arial, sans-serif" font-weight="700">Poison Current</text>
</svg>
