<svg xmlns="http://www.w3.org/2000/svg" viewBox="0 0 256 356">
  <defs>
    <linearGradient id="bg" x1="0" y1="0" x2="1" y2="1">
      <stop offset="0%" stop-color="#A9D9D1"/>
      <stop offset="100%" stop-color="#274F59"/>
    </linearGradient>
  </defs>
  <rect width="256" height="356" rx="28" fill="#071017"/>
  <rect x="10" y="10" width="236" height="336" rx="22" fill="url(#bg)"/>
  <rect x="24" y="26" width="208" height="176" rx="20" fill="#10222B" opacity="0.88"/>
  <path d="M128 62c30 0 54 25 54 56 0 34-26 60-54 60s-54-26-54-60c0-31 24-56 54-56z" fill="#F3F7FB"/>
  <circle cx="108" cy="112" r="8" fill="#10222B"/>
  <circle cx="148" cy="112" r="8" fill="#10222B"/>
  <path d="M108 142h40l-20 16z" fill="#10222B"/>
  <rect x="52" y="228" width="152" height="16" rx="8" fill="#D9F0ED" opacity="0.55"/>
  <rect x="70" y="254" width="116" height="12" rx="6" fill="#D9F0ED" opacity="0.35"/>
  <text x="26" y="46" fill="#F7F8FB" font-size="20" font-family="Arial, sans-serif" font-weight="700">UNDEAD</text>
  <text x="26" y="324" fill="#F7F8FB" font-size="22" font-family="Arial, sans-serif" font-weight="700">Reborn Chain</text>
</svg>
